<svg width="640" height="100" viewBox="0 0 640 100" fill="none" xmlns="http://www.w3.org/2000/svg">
<g clip-path="url(#clip0)">
<path fill-rule="evenodd" clip-rule="evenodd" d="M274.449 0H640V99.7226L639.427 99.7509L638.854 99.7762L638.281 99.7983H637.708H637.135H636.562H635.989H635.416H634.843H634.27H633.697H633.124H632.552H631.979H631.779L631.406 99.7854L630.833 99.7643L630.26 99.7411L629.687 99.7144L629.114 99.6805L628.541 99.6388L627.968 99.587L627.395 99.5217L626.822 99.4417L626.249 99.3444L625.676 99.2264L625.103 99.0864L624.53 98.9239L623.957 98.7398L623.384 98.5339L622.811 98.3059L622.238 98.058L621.665 97.793L621.092 97.5123L620.519 97.2189L619.946 96.916L619.373 96.6099L618.8 96.3047L618.227 95.9983L617.654 95.6931L617.082 95.3956L616.509 95.105L615.935 94.8214L615.363 94.5461L614.79 94.2786L614.217 94.0119L613.644 93.7336L613.071 93.4357L612.498 93.118L611.925 92.7755L611.352 92.4047L610.779 92.014L610.206 91.6095L609.633 91.1874L609.06 90.7344L608.487 90.232L607.914 89.6585L607.341 88.9926L606.768 88.2297L606.195 87.3841L605.622 86.4723L605.049 85.5106L604.476 84.507L603.903 83.4809L603.33 82.4519L602.757 81.432L602.184 80.4345L601.611 79.4726L601.039 78.5703L600.466 77.742L599.892 76.9848L599.32 76.3056L598.747 75.7222L598.174 75.2415L597.601 74.8643L597.028 74.5834L596.455 74.3865L595.882 74.2549L595.309 74.169L594.736 74.1228L594.163 74.1136L593.59 74.1331L593.017 74.1848L592.444 74.2887L591.871 74.4477L591.298 74.6444L590.725 74.8547L590.152 75.0636L589.579 75.2698L589.006 75.4691L588.433 75.666L587.86 75.8618L587.287 76.0475L586.714 76.2112L586.141 76.3401L585.569 76.439L584.995 76.496L584.423 76.5075L583.85 76.4886L583.277 76.4411L582.704 76.3647L582.131 76.2389L581.558 76.0439L580.985 75.7816L580.412 75.449L579.839 75.0328L579.266 74.5216L578.693 73.9151L578.12 73.2214L577.547 72.4531L576.974 71.6256L576.401 70.7544L575.828 69.8584L575.255 68.9582L574.682 68.0783L574.109 67.2346L573.536 66.4394L572.963 65.7128L572.39 65.0779L571.817 64.5594L571.244 64.1593L570.671 63.869L570.099 63.6892L569.526 63.6156L568.952 63.6326L568.38 63.7033L567.807 63.7874L567.234 63.8553L566.661 63.8849L566.088 63.8632L565.515 63.7775L564.942 63.6069L564.369 63.3508L563.796 63.0234L563.223 62.6395L562.65 62.2261L562.077 61.808L561.504 61.4065L560.931 61.0384L560.358 60.7173L559.785 60.4564L559.212 60.2637L558.639 60.1412L558.066 60.0883L557.493 60.1196L556.92 60.2252L556.347 60.3749L555.774 60.5433L555.201 60.7326L554.628 60.9272L554.055 61.0853L553.483 61.165L552.91 61.1432L552.337 61.0353L551.764 60.8574L551.191 60.6196L550.618 60.3307L550.045 59.9994L549.472 59.6308L548.899 59.2346L548.326 58.8168L547.753 58.3737L547.18 57.9093L546.607 57.4164L546.034 56.8935L545.461 56.3488L544.888 55.791L544.315 55.2443L543.742 54.7082L543.169 54.155L542.596 53.5485L542.023 52.8594L541.45 52.0793L540.877 51.2081L540.304 50.2437L539.731 49.1838L539.158 48.0385L538.585 46.8223L538.013 45.568L537.44 44.3076L536.867 43.0566L536.294 41.7996L535.721 40.5184L535.148 39.2189L534.575 37.9217L534.002 36.6426L533.429 35.3852L532.856 34.1515L532.283 32.9569L531.71 31.8263L531.137 30.7734L530.564 29.8069L529.991 28.9222L529.418 28.1294L528.845 27.44L528.272 26.8428L527.699 26.3486L527.126 25.995L526.553 25.7931L525.98 25.695L525.407 25.6623L524.834 25.6968L524.261 25.782L523.688 25.8941L523.115 25.9687L522.543 25.8638L521.97 25.4601L521.397 24.7407L520.824 23.7917L520.251 22.7724L519.678 21.8683L519.105 21.2206L518.532 20.9308L517.959 21.0503L517.386 21.5921L516.813 22.5194L516.24 23.7682L515.667 25.2812L515.094 27.0107L514.521 28.9513L513.948 31.129L513.375 33.5463L512.802 36.1566L512.229 38.8805L511.656 41.6387L511.083 44.3328L510.51 46.8414L509.937 49.0688L509.364 50.9734L508.791 52.5346L508.218 53.7423L507.645 54.6685L507.073 55.465L506.499 56.2406L505.927 57.0124L505.354 57.7642L504.781 58.4041L504.208 58.8012L503.635 58.9063L503.062 58.7263L502.489 58.3174L501.916 57.7607L501.343 57.1292L500.77 56.4757L500.197 55.8375L499.624 55.2297L499.051 54.6637L498.478 54.1063L497.905 53.5317L497.332 52.951L496.759 52.3783L496.186 51.8545L495.613 51.4034L495.04 51.0191L494.467 50.6978L493.894 50.4307L493.321 50.2117L492.748 50.0252L492.175 49.8736L491.602 49.7736L491.03 49.7336L490.457 49.7367L489.884 49.7589L489.311 49.7903L488.738 49.8015L488.165 49.7625L487.592 49.6555L487.019 49.4845L486.446 49.244L485.873 48.9247L485.3 48.5325L484.727 48.066L484.154 47.5541L483.581 47.0314L483.008 46.5214L482.435 46.0569L481.862 45.6545L481.289 45.3234L480.716 45.0509L480.143 44.7934L479.57 44.5018L478.997 44.0914L478.424 43.4147L477.851 42.4147L477.278 41.1631L476.705 39.8432L476.132 38.7045L475.559 37.9983L474.987 37.9431L474.414 38.6953L473.841 40.3356L473.268 42.8647L472.695 46.2136L472.122 50.2541L471.549 54.8437L470.976 59.8448L470.403 65.1229L469.83 70.5488L469.257 75.9772L468.684 81.2513L468.111 86.1877L467.538 90.5818L466.965 94.2485L466.392 97.0474L465.819 98.9175L465.29 99.7983H465.246H464.673H464.445L464.1 99.4936L463.527 98.5989L462.954 97.582L462.381 96.6764L461.809 96.0303L461.235 95.6553L460.662 95.4517L460.09 95.3052L459.517 95.1816L458.944 95.0718L458.371 94.9702L457.798 94.8693L457.225 94.7595L456.652 94.6326L456.079 94.48L455.506 94.2972L454.933 94.0843L454.36 93.8326L453.787 93.5409L453.214 93.2037L452.641 92.8173L452.068 92.3641L451.495 91.8196L450.922 91.155L450.349 90.3518L449.776 89.3836L449.203 88.2249L448.63 86.8579L448.057 85.2784L447.484 83.5028L446.911 81.5605L446.338 79.4793L445.765 77.2872L445.193 75.0177L444.619 72.7106L444.047 70.4086L443.474 68.1513L442.901 65.9908L442.328 63.9826L441.755 62.1477L441.182 60.4925L440.609 59.0336L440.036 57.7978L439.463 56.7692L438.89 55.9268L438.317 55.2421L437.744 54.6753L437.171 54.1739L436.598 53.6837L436.025 53.1577L435.452 52.5688L434.879 51.8883L434.306 51.0931L433.733 50.1528L433.16 49.0393L432.587 47.6863L432.014 45.9445L431.441 43.5903L430.868 40.5148L430.295 36.827L429.722 32.8291L429.15 28.9356L428.576 25.5753L428.004 23.1196L427.431 21.8444L426.858 21.9098L426.285 23.3604L425.712 26.1401L425.139 30.1209L424.566 35.1331L423.993 40.9731L423.42 47.4201L422.847 54.2831L422.274 61.3742L421.701 68.4614L421.128 75.256L420.555 81.4768L419.982 86.8442L419.409 91.115L418.836 94.127L418.263 95.8447L417.69 96.3741L417.117 95.9545L416.544 94.9297L415.971 93.6908L415.398 92.5853L414.825 91.8243L414.252 91.4206L413.679 91.227L413.107 91.065L412.534 90.8513L411.961 90.569L411.388 90.215L410.815 89.7898L410.242 89.2978L409.669 88.7472L409.096 88.1509L408.523 87.5259L407.95 86.8931L407.377 86.2788L406.804 85.7099L406.231 85.2123L405.658 84.8139L405.085 84.5377L404.512 84.393L403.939 84.3686L403.366 84.4305L402.793 84.5223L402.22 84.5773L401.647 84.5287L401.074 84.3236L400.501 83.9255L399.928 83.3158L399.355 82.4928L398.782 81.4706L398.21 80.273L397.637 78.935L397.064 77.4945L396.491 75.9926L395.918 74.4728L395.345 72.9784L394.772 71.5523L394.199 70.2303L393.626 69.0369L393.053 67.9839L392.48 67.0704L391.907 66.2796L391.334 65.5868L390.761 64.9599L390.188 64.3697L389.615 63.8054L389.042 63.2649L388.469 62.7179L387.896 62.0921L387.323 61.299L386.75 60.2573L386.177 58.9033L385.604 57.2142L385.031 55.1989L384.458 52.8985L383.885 50.3937L383.312 47.7658L382.739 45.0637L382.166 42.3108L381.594 39.5571L381.021 36.8692L380.448 34.3485L379.875 32.1121L379.302 30.2541L378.729 28.845L378.156 27.9467L377.583 27.6182L377.01 27.8838L376.437 28.7152L375.864 30.0405L375.291 31.7601L374.718 33.762L374.145 35.882L373.572 37.949L372.999 39.8591L372.426 41.5887L371.853 43.1367L371.28 44.4926L370.707 45.6319L370.134 46.5214L369.561 47.1184L368.988 47.3793L368.415 47.2973L367.842 46.9178L367.27 46.3037L366.697 45.5464L366.124 44.7216L365.551 43.9276L364.978 43.2245L364.405 42.6326L363.832 42.1362L363.259 41.749L362.686 41.509L362.113 41.439L361.54 41.5025L360.967 41.653L360.394 41.8908L359.821 42.2374L359.248 42.7285L358.675 43.3641L358.102 44.1335L357.529 45.013L356.956 45.9553L356.383 46.8994L355.81 47.7915L355.237 48.6494L354.664 49.5409L354.091 50.5048L353.518 51.5314L352.945 52.6124L352.372 53.7531L351.799 54.9398L351.226 56.1429L350.654 57.326L350.081 58.4591L349.508 59.5072L348.935 60.4217L348.362 61.1975L347.789 61.8298L347.216 62.3583L346.643 62.7833L346.07 63.094L345.497 63.278L344.924 63.3558L344.351 63.3445L343.778 63.2042L343.205 62.9129L342.632 62.4935L342.059 61.993L341.486 61.4612L340.913 60.9573L340.34 60.5091L339.767 60.1212L339.194 59.7735L338.621 59.4329L338.048 59.0855L337.475 58.7438L336.902 58.4301L336.329 58.1456L335.757 57.8654L335.184 57.5698L334.611 57.242L334.038 56.8675L333.465 56.4483L332.892 56.0095L332.319 55.5557L331.746 55.0908L331.173 54.6356L330.6 54.2178L330.027 53.8616L329.454 53.5676L328.881 53.3366L328.308 53.1676L327.735 53.0683L327.162 53.0373L326.589 53.0674L326.016 53.1442L325.443 53.2227L324.87 53.2551L324.297 53.1953L323.724 53.041L323.151 52.7934L322.578 52.4507L322.005 52.025L321.432 51.5336L320.859 50.9972L320.286 50.4296L319.714 49.8687L319.141 49.3573L318.568 48.9225L317.995 48.5439L317.422 48.2056L316.849 47.9104L316.276 47.654L315.703 47.4265L315.13 47.2044L314.557 46.9625L313.984 46.6858L313.411 46.3714L312.838 46.0162L312.265 45.6038L311.692 45.1125L311.119 44.5041L310.546 43.7401L309.973 42.8169L309.4 41.7733L308.827 40.6928L308.254 39.6854L307.681 38.8533L307.108 38.2596L306.535 37.945L305.962 37.9337L305.389 38.2351L304.816 38.8217L304.243 39.6631L303.671 40.7464L303.098 42.032L302.525 43.481L301.952 45.0496L301.379 46.7101L300.806 48.4107L300.233 50.0807L299.66 51.6674L299.087 53.1214L298.514 54.3898L297.941 55.425L297.368 56.1762L296.795 56.6227L296.222 56.7937L295.649 56.7509L295.076 56.5414L294.503 56.2267L293.93 55.8609L293.357 55.4434L292.784 54.962L292.211 54.3844L291.638 53.6887L291.065 52.8676L290.492 51.9379L289.919 50.9162L289.346 49.829L288.774 48.7037L288.201 47.5322L287.628 46.2956L287.055 44.9964L286.482 43.6315L285.909 42.2023L285.336 40.7123L284.763 39.1632L284.19 37.5747L283.617 35.9712L283.044 34.3737L282.471 32.7885L281.898 31.2091L281.325 29.6367L280.752 28.0356L280.179 26.3867L279.606 24.6448L279.033 22.6547L278.46 20.1574L277.887 16.9973L277.314 13.2627L276.741 9.27031L276.168 5.49742L275.595 2.43644L275.022 0.501472L274.449 0ZM0 99.2793L0.572904 94.856L1.14594 90.5643L1.71884 86.4092L2.29187 82.3957L2.86477 78.5295L3.43781 74.8162L4.01071 71.2622L4.58374 67.874L5.15664 64.6574L5.72968 61.6167L6.30258 58.7537L6.87561 56.068L7.44851 53.5533L8.02155 51.1934L8.59445 48.9544L9.16735 46.7913L9.74038 44.7341L10.3133 43.5607L10.8863 42.7126L11.4592 42.2043L12.0323 41.9843L12.6052 41.8998L13.1782 41.7649L13.7511 41.4072L14.3241 40.7753L14.897 39.8318L15.4701 38.5416L16.043 36.8681L16.6159 34.8103L17.1889 32.4993L17.7618 30.1439L18.3348 27.9345L18.9077 25.9698L19.4808 24.2789L20.0537 22.8999L20.6267 21.8979L21.1996 21.3529L21.7726 21.3303L22.3456 21.8221L22.9186 22.7611L23.4915 24.068L24.0645 25.6226L24.6374 27.3293L25.2103 29.1124L25.7834 30.9533L26.3563 32.8108L26.9293 34.5816L27.5022 36.1444L28.0752 37.4227L28.6481 38.4266L29.2212 39.2658L29.7941 40.027L30.3671 40.7087L30.94 41.2423L31.513 41.5858L32.0859 41.7421L32.659 41.8063L33.2319 41.798L33.8048 41.7069L34.3778 41.4907L34.9507 41.1126L35.5237 40.5919L36.0966 39.9645L36.6697 39.2535L37.2426 38.4348L37.8156 37.4691L38.3885 36.3571L38.9615 35.1309L39.5344 33.8157L40.1075 32.4795L40.6804 31.2687L41.2534 30.3173L41.8263 29.6508L42.3992 29.1967L42.9723 28.8919L43.5452 28.6935L44.1182 28.6082L44.6911 28.6865L45.2641 28.9358L45.837 29.3306L46.4101 29.8317L46.983 30.4605L47.556 31.3306L48.1289 32.4509L48.7019 33.6361L49.2748 34.6036L49.8477 35.1277L50.4208 35.1625L50.9937 34.8699L51.5667 34.4152L52.1396 33.8572L52.7126 33.1617L53.2855 32.2617L53.8586 31.1317L54.4315 29.8537L55.0045 28.5179L55.5774 27.1248L56.1505 25.6059L56.7234 23.9036L57.2964 22.0588L57.8693 20.2364L58.4423 18.7063L59.0152 17.6898L59.5881 17.2175L60.1612 17.2023L60.7341 17.5415L61.3071 18.1665L61.88 19.0637L62.453 20.2606L63.0259 21.7375L63.599 23.3804L64.1719 25.0675L64.7449 26.7303L65.3178 28.3663L65.8908 29.9577L66.4637 31.3634L67.0366 32.4141L67.6097 33.034L68.1826 33.2935L68.7556 33.4133L69.3285 33.6119L69.9016 33.9064L70.4745 34.1584L71.0475 34.2371L71.6204 34.1248L72.1934 33.9644L72.7663 33.9429L73.3393 34.1261L73.9123 34.4382L74.4852 34.7695L75.0582 35.0546L75.6311 35.2935L76.2041 35.4956L76.777 35.6023L77.3501 35.4957L77.923 35.0958L78.496 34.4142L79.0689 33.5427L79.6419 32.5834L80.2148 31.6243L80.7879 30.7048L81.3608 29.7942L81.9338 28.8552L82.5067 27.8753L83.0796 26.8696L83.6526 25.8806L84.2255 24.9448L84.7986 24.0883L85.3715 23.3606L85.9445 22.813L86.5174 22.5266L87.0905 22.5402L87.6634 22.7772L88.2364 23.0998L88.8093 23.3951L89.3823 23.6279L89.9552 23.841L90.5282 24.1306L91.1012 24.5429L91.6742 25.0714L92.2471 25.7133L92.82 26.4449L93.393 27.2373L93.9659 28.0526L94.539 28.8288L95.1119 29.5099L95.6849 30.093L96.2578 30.6523L96.8308 31.3005L97.4037 32.1436L97.9768 33.2107L98.5497 34.4746L99.1227 35.8789L99.6956 37.3389L100.269 38.7712L100.842 40.1028L101.414 41.2697L101.987 42.2082L102.56 42.8346L103.133 43.1036L103.706 43.0466L104.279 42.7323L104.852 42.265L105.425 41.6897L105.998 40.9782L106.571 40.1291L107.144 39.1741L107.717 38.1347L108.29 37.0258L108.863 35.8669L109.436 34.6996L110.009 33.5748L110.582 32.5443L111.155 31.609L111.728 30.7832L112.301 30.0985L112.874 29.5602L113.447 29.1513L114.02 28.8498L114.593 28.6606L115.166 28.5661L115.739 28.5254L116.311 28.5193L116.885 28.5602L117.457 28.6539L118.03 28.7856L118.603 28.9507L119.176 29.193L119.749 29.609L120.322 30.2295L120.895 30.9721L121.468 31.7669L122.041 32.6023L122.614 33.4336L123.187 34.1334L123.76 34.5693L124.333 34.7345L124.906 34.7337L125.479 34.6124L126.052 34.3534L126.625 33.9604L127.198 33.4894L127.771 33.0234L128.344 32.5472L128.917 31.9913L129.49 31.3299L130.063 30.6169L130.636 29.8945L131.209 29.2061L131.782 28.6352L132.355 28.2372L132.927 28.0339L133.5 28.0269L134.073 28.2244L134.646 28.6207L135.219 29.126L135.792 29.6104L136.365 29.942L136.938 30.0302L137.511 29.9028L138.084 29.6389L138.657 29.2528L139.23 28.7082L139.803 28.0137L140.376 27.2323L140.949 26.3899L141.522 25.4445L142.095 24.3477L142.668 23.0899L143.241 21.6388L143.814 19.9672L144.387 18.1637L144.96 16.3988L145.533 14.8348L146.106 13.5613L146.679 12.5886L147.252 11.9593L147.825 11.7471L148.398 11.9902L148.97 12.6271L149.543 13.5962L150.116 14.8183L150.689 16.2247L151.262 17.7648L151.835 19.386L152.408 21.0228L152.981 22.6134L153.554 24.1061L154.127 25.4752L154.7 26.7101L155.273 27.8211L155.846 28.8709L156.419 29.856L156.992 30.7317L157.565 31.4745L158.138 32.1321L158.711 32.8058L159.284 33.5247L159.857 34.2281L160.43 34.9156L161.003 35.6961L161.576 36.6893L162.149 37.9659L162.722 39.5309L163.295 41.3137L163.867 43.1561L164.441 44.8933L165.013 46.4201L165.586 47.6832L166.159 48.6414L166.732 49.2733L167.305 49.593L167.878 49.6983L168.451 49.6663L169.024 49.5335L169.597 49.294L170.17 48.9377L170.743 48.4865L171.316 47.9685L171.889 47.4166L172.462 46.9173L173.035 46.5679L173.608 46.4335L174.181 46.5723L174.754 46.9939L175.327 47.6947L175.9 48.5859L176.473 49.5193L177.046 50.3771L177.619 51.0809L178.192 51.58L178.765 51.8728L179.338 51.9838L179.91 51.9429L180.483 51.7677L181.056 51.4999L181.629 51.1666L182.202 50.7348L182.775 50.1825L183.348 49.5261L183.921 48.767L184.494 47.9083L185.067 46.9766L185.64 46.0358L186.213 45.1449L186.786 44.3276L187.359 43.5899L187.932 42.911L188.505 42.2086L189.078 41.3988L189.651 40.4185L190.224 39.2191L190.797 37.8228L191.37 36.2848L191.943 34.6721L192.516 33.0649L193.089 31.5652L193.662 30.2712L194.235 29.1989L194.807 28.331L195.381 27.6541L195.953 27.138L196.526 26.7508L197.099 26.4956L197.672 26.4232L198.245 26.5665L198.818 26.8785L199.391 27.3075L199.964 27.7859L200.537 28.1979L201.11 28.4406L201.683 28.4855L202.256 28.3004L202.829 27.854L203.402 27.1398L203.975 26.2177L204.548 25.1739L205.121 24.0901L205.694 23.0423L206.267 22.0858L206.84 21.2402L207.413 20.5479L207.986 20.0769L208.559 19.8761L209.132 20.0022L209.704 20.4654L210.278 21.245L210.85 22.2988L211.423 23.5329L211.996 24.7983L212.569 25.9411L213.142 26.8649L213.715 27.5209L214.288 27.9071L214.861 28.0771L215.434 28.0888L216.007 27.9708L216.58 27.7026L217.153 27.2615L217.726 26.6896L218.299 26.0617L218.872 25.4464L219.445 24.9344L220.018 24.6428L220.591 24.6232L221.164 24.9121L221.737 25.5461L222.31 26.555L222.883 27.913L223.456 29.5383L224.029 31.3374L224.602 33.172L225.175 34.8969L225.747 36.4167L226.321 37.6907L226.893 38.7131L227.466 39.5227L228.039 40.1725L228.612 40.7313L229.185 41.232L229.758 41.6853L230.331 42.1283L230.904 42.6074L231.477 43.1429L232.05 43.7375L232.623 44.4557L233.196 45.436L233.769 46.6744L234.342 48.0309L234.915 49.2946L235.488 50.2498L236.061 50.7299L236.634 50.6377L237.207 49.9318L237.78 48.6184L238.353 46.7698L238.926 44.5148L239.499 42.005L240.072 39.3793L240.645 36.7688L241.218 34.2994L241.79 32.1045L242.363 30.3179L242.936 29.0464L243.509 28.3766L244.082 28.3708L244.655 29.0695L245.228 30.4802L245.801 32.5514L246.374 35.1632L246.947 38.1295L247.52 41.2269L248.093 44.2351L248.666 46.952L249.239 49.239L249.812 51.0757L250.385 52.5741L250.958 53.9426L251.531 55.36L252.104 56.8466L252.677 58.3901L253.25 59.9731L253.823 61.5864L254.396 63.2288L254.969 64.9069L255.542 66.6297L256.115 68.3988L256.688 70.2009L257.26 72.0025L257.834 73.7433L258.406 75.3636L258.979 76.8182L259.552 78.0785L260.125 79.1395L260.698 80.0183L261.271 80.8191L261.844 81.8015L262.417 83.1714L262.99 84.9166L263.563 86.7746L264.136 88.3406L264.709 89.1711L265.282 88.8903L265.855 87.2491L266.428 84.1412L267.001 79.5838L267.574 73.7232L268.147 66.8036L268.72 59.1269L269.293 51.0096L269.866 42.7551L270.439 34.6112L271.012 26.7988L271.585 19.5611L272.158 13.1379L272.73 7.76957L273.303 3.6865L273.876 1.06319L274.449 0H0V99.2793ZM0 99.7983V100L464.673 100L640 100V99.7983H639.427H638.854H638.281L637.708 99.8171L637.135 99.8323L636.562 99.8441L635.989 99.8523L635.416 99.8568L634.843 99.8576L634.27 99.8544L633.697 99.8475L633.124 99.8368L632.552 99.8226L631.979 99.8052L631.779 99.7983H631.406H630.833H630.26H629.687H629.114H628.541H627.968H627.395H626.822H626.249H625.676H625.103H624.53H623.957H623.384H622.811H622.238H621.665H621.092H620.519H619.946H619.373H618.8H618.227H617.654H617.082H616.509H615.935H615.363H614.79H614.217H613.644H613.071H612.498H611.925H611.352H610.779H610.206H609.633H609.06H608.487H607.914H607.341H606.768H606.195H605.622H605.049H604.476H603.903H603.33H602.757H602.184H601.611H601.039H600.466H599.892H599.32H598.747H598.174H597.601H597.028H596.455H595.882H595.309H594.736H594.163H593.59H593.017H592.444H591.871H591.298H590.725H590.152H589.579H589.006H588.433H587.86H587.287H586.714H586.141H585.569H584.995H584.423H583.85H583.277H582.704H582.131H581.558H580.985H580.412H579.839H579.266H578.693H578.12H577.547H576.974H576.401H575.828H575.255H574.682H574.109H573.536H572.963H572.39H571.817H571.244H570.671H570.099H569.526H568.952H568.38H567.807H567.234H566.661H566.088H565.515H564.942H564.369H563.796H563.223H562.65H562.077H561.504H560.931H560.358H559.785H559.212H558.639H558.066H557.493H556.92H556.347H555.774H555.201H554.628H554.055H553.483H552.91H552.337H551.764H551.191H550.618H550.045H549.472H548.899H548.326H547.753H547.18H546.607H546.034H545.461H544.888H544.315H543.742H543.169H542.596H542.023H541.45H540.877H540.304H539.731H539.158H538.585H538.013H537.44H536.867H536.294H535.721H535.148H534.575H534.002H533.429H532.856H532.283H531.71H531.137H530.564H529.991H529.418H528.845H528.272H527.699H527.126H526.553H525.98H525.407H524.834H524.261H523.688H523.115H522.543H521.97H521.397H520.824H520.251H519.678H519.105H518.532H517.959H517.386H516.813H516.24H515.667H515.094H514.521H513.948H513.375H512.802H512.229H511.656H511.083H510.51H509.937H509.364H508.791H508.218H507.645H507.073H506.499H505.927H505.354H504.781H504.208H503.635H503.062H502.489H501.916H501.343H500.77H500.197H499.624H499.051H498.478H497.905H497.332H496.759H496.186H495.613H495.04H494.467H493.894H493.321H492.748H492.175H491.602H491.03H490.457H489.884H489.311H488.738H488.165H487.592H487.019H486.446H485.873H485.3H484.727H484.154H483.581H483.008H482.435H481.862H481.289H480.716H480.143H479.57H478.997H478.424H477.851H477.278H476.705H476.132H475.559H474.987H474.414H473.841H473.268H472.695H472.122H471.549H470.976H470.403H469.83H469.257H468.684H468.111H467.538H466.965H466.392H465.819H465.29L465.246 99.8714L464.673 100L464.445 99.7983H464.1H463.527H462.954H462.381H461.809H461.235H460.662H460.09H459.517H458.944H458.371H457.798H457.225H456.652H456.079H455.506H454.933H454.36H453.787H453.214H452.641H452.068H451.495H450.922H450.349H449.776H449.203H448.63H448.057H447.484H446.911H446.338H445.765H445.193H444.619H444.047H443.474H442.901H442.328H441.755H441.182H440.609H440.036H439.463H438.89H438.317H437.744H437.171H436.598H436.025H435.452H434.879H434.306H433.733H433.16H432.587H432.014H431.441H430.868H430.295H429.722H429.15H428.576H428.004H427.431H426.858H426.285H425.712H425.139H424.566H423.993H423.42H422.847H422.274H421.701H421.128H420.555H419.982H419.409H418.836H418.263H417.69H417.117H416.544H415.971H415.398H414.825H414.252H413.679H413.107H412.534H411.961H411.388H410.815H410.242H409.669H409.096H408.523H407.95H407.377H406.804H406.231H405.658H405.085H404.512H403.939H403.366H402.793H402.22H401.647H401.074H400.501H399.928H399.355H398.782H398.21H397.637H397.064H396.491H395.918H395.345H394.772H394.199H393.626H393.053H392.48H391.907H391.334H390.761H390.188H389.615H389.042H388.469H387.896H387.323H386.75H386.177H385.604H385.031H384.458H383.885H383.312H382.739H382.166H381.594H381.021H380.448H379.875H379.302H378.729H378.156H377.583H377.01H376.437H375.864H375.291H374.718H374.145H373.572H372.999H372.426H371.853H371.28H370.707H370.134H369.561H368.988H368.415H367.842H367.27H366.697H366.124H365.551H364.978H364.405H363.832H363.259H362.686H362.113H361.54H360.967H360.394H359.821H359.248H358.675H358.102H357.529H356.956H356.383H355.81H355.237H354.664H354.091H353.518H352.945H352.372H351.799H351.226H350.654H350.081H349.508H348.935H348.362H347.789H347.216H346.643H346.07H345.497H344.924H344.351H343.778H343.205H342.632H342.059H341.486H340.913H340.34H339.767H339.194H338.621H338.048H337.475H336.902H336.329H335.757H335.184H334.611H334.038H333.465H332.892H332.319H331.746H331.173H330.6H330.027H329.454H328.881H328.308H327.735H327.162H326.589H326.016H325.443H324.87H324.297H323.724H323.151H322.578H322.005H321.432H320.859H320.286H319.714H319.141H318.568H317.995H317.422H316.849H316.276H315.703H315.13H314.557H313.984H313.411H312.838H312.265H311.692H311.119H310.546H309.973H309.4H308.827H308.254H307.681H307.108H306.535H305.962H305.389H304.816H304.243H303.671H303.098H302.525H301.952H301.379H300.806H300.233H299.66H299.087H298.514H297.941H297.368H296.795H296.222H295.649H295.076H294.503H293.93H293.357H292.784H292.211H291.638H291.065H290.492H289.919H289.346H288.774H288.201H287.628H287.055H286.482H285.909H285.336H284.763H284.19H283.617H283.044H282.471H281.898H281.325H280.752H280.179H279.606H279.033H278.46H277.887H277.314H276.741H276.168H275.595H275.022H274.449H273.876H273.303H272.73H272.158H271.585H271.012H270.439H269.866H269.293H268.72H268.147H267.574H267.001H266.428H265.855H265.282H264.709H264.136H263.563H262.99H262.417H261.844H261.271H260.698H260.125H259.552H258.979H258.406H257.834H257.26H256.688H256.115H255.542H254.969H254.396H253.823H253.25H252.677H252.104H251.531H250.958H250.385H249.812H249.239H248.666H248.093H247.52H246.947H246.374H245.801H245.228H244.655H244.082H243.509H242.936H242.363H241.79H241.218H240.645H240.072H239.499H238.926H238.353H237.78H237.207H236.634H236.061H235.488H234.915H234.342H233.769H233.196H232.623H232.05H231.477H230.904H230.331H229.758H229.185H228.612H228.039H227.466H226.893H226.321H225.747H225.175H224.602H224.029H223.456H222.883H222.31H221.737H221.164H220.591H220.018H219.445H218.872H218.299H217.726H217.153H216.58H216.007H215.434H214.861H214.288H213.715H213.142H212.569H211.996H211.423H210.85H210.278H209.704H209.132H208.559H207.986H207.413H206.84H206.267H205.694H205.121H204.548H203.975H203.402H202.829H202.256H201.683H201.11H200.537H199.964H199.391H198.818H198.245H197.672H197.099H196.526H195.953H195.381H194.807H194.235H193.662H193.089H192.516H191.943H191.37H190.797H190.224H189.651H189.078H188.505H187.932H187.359H186.786H186.213H185.64H185.067H184.494H183.921H183.348H182.775H182.202H181.629H181.056H180.483H179.91H179.338H178.765H178.192H177.619H177.046H176.473H175.9H175.327H174.754H174.181H173.608H173.035H172.462H171.889H171.316H170.743H170.17H169.597H169.024H168.451H167.878H167.305H166.732H166.159H165.586H165.013H164.441H163.867H163.295H162.722H162.149H161.576H161.003H160.43H159.857H159.284H158.711H158.138H157.565H156.992H156.419H155.846H155.273H154.7H154.127H153.554H152.981H152.408H151.835H151.262H150.689H150.116H149.543H148.97H148.398H147.825H147.252H146.679H146.106H145.533H144.96H144.387H143.814H143.241H142.668H142.095H141.522H140.949H140.376H139.803H139.23H138.657H138.084H137.511H136.938H136.365H135.792H135.219H134.646H134.073H133.5H132.927H132.355H131.782H131.209H130.636H130.063H129.49H128.917H128.344H127.771H127.198H126.625H126.052H125.479H124.906H124.333H123.76H123.187H122.614H122.041H121.468H120.895H120.322H119.749H119.176H118.603H118.03H117.457H116.885H116.311H115.739H115.166H114.593H114.02H113.447H112.874H112.301H111.728H111.155H110.582H110.009H109.436H108.863H108.29H107.717H107.144H106.571H105.998H105.425H104.852H104.279H103.706H103.133H102.56H101.987H101.414H100.842H100.269H99.6956H99.1227H98.5497H97.9768H97.4037H96.8308H96.2578H95.6849H95.1119H94.539H93.9659H93.393H92.82H92.2471H91.6742H91.1012H90.5282H89.9552H89.3823H88.8093H88.2364H87.6634H87.0905H86.5174H85.9445H85.3715H84.7986H84.2255H83.6526H83.0796H82.5067H81.9338H81.3608H80.7879H80.2148H79.6419H79.0689H78.496H77.923H77.3501H76.777H76.2041H75.6311H75.0582H74.4852H73.9123H73.3393H72.7663H72.1934H71.6204H71.0475H70.4745H69.9016H69.3285H68.7556H68.1826H67.6097H67.0366H66.4637H65.8908H65.3178H64.7449H64.1719H63.599H63.0259H62.453H61.88H61.3071H60.7341H60.1612H59.5881H59.0152H58.4423H57.8693H57.2964H56.7234H56.1505H55.5774H55.0045H54.4315H53.8586H53.2855H52.7126H52.1396H51.5667H50.9937H50.4208H49.8477H49.2748H48.7019H48.1289H47.556H46.983H46.4101H45.837H45.2641H44.6911H44.1182H43.5452H42.9723H42.3992H41.8263H41.2534H40.6804H40.1075H39.5344H38.9615H38.3885H37.8156H37.2426H36.6697H36.0966H35.5237H34.9507H34.3778H33.8048H33.2319H32.659H32.0859H31.513H30.94H30.3671H29.7941H29.2212H28.6481H28.0752H27.5022H26.9293H26.3563H25.7834H25.2103H24.6374H24.0645H23.4915H22.9186H22.3456H21.7726H21.1996H20.6267H20.0537H19.4808H18.9077H18.3348H17.7618H17.1889H16.6159H16.043H15.4701H14.897H14.3241H13.7511H13.1782H12.6052H12.0323H11.4592H10.8863H10.3133H9.74038H9.16735H8.59445H8.02155H7.44851H6.87561H6.30258H5.72968H5.15664H4.58374H4.01071H3.43781H2.86477H2.29187H1.71884H1.14594H0.572904H0Z" fill="#C0C0C0"/>
</g>
<defs>
<clipPath id="clip0">
<rect width="640" height="100" fill="white"/>
</clipPath>
</defs>
</svg>
