<svg width="34" height="35" viewBox="0 0 34 35" fill="none" xmlns="http://www.w3.org/2000/svg">
<path d="M11.366 8.49294H7.16245C6.16923 8.49294 5.36111 9.30105 5.36111 10.2943V24.7057C5.36111 25.137 5.51939 25.5279 5.77295 25.8382L11.366 20.2452V8.49294Z" fill="black"/>
<path d="M25.4158 0.0824176C25.1898 -0.0381382 24.9265 -0.0260826 24.7127 0.116251L12.6232 8.17599C12.605 8.18805 12.5851 8.1966 12.5668 8.20788V19.0443L25.7774 5.83371V0.686363C25.7774 0.429696 25.6421 0.203751 25.4158 0.0824176Z" fill="black"/>
<path d="M1.47222 34.0278L8.99296 26.5071H11.366V24.1341L12.5669 22.9332V26.7918C12.5851 26.803 12.605 26.8116 12.6232 26.8236L24.7127 34.8834C24.9266 35.0261 25.1887 35.0385 25.4158 34.9172C25.6421 34.7959 25.7774 34.5699 25.7774 34.3133V9.72261L33.5556 1.94442L32.5834 0.972198L0.5 33.0556C0.570389 33.0817 1.47222 34.0278 1.47222 34.0278Z" fill="black"/>
</svg>
