<svg xmlns="http://www.w3.org/2000/svg" xmlns:xlink="http://www.w3.org/1999/xlink" version="1.2" baseProfile="tiny" x="0px" y="0px" viewBox="0 0 100 125" xml:space="preserve"><g><path d="M35.441,26.839H24.632c-2.554,0-4.632,2.078-4.632,4.632v37.058c0,1.109,0.407,2.114,1.059,2.912l14.382-14.382V26.839z"/><path d="M71.569,5.212c-0.581-0.31-1.258-0.279-1.808,0.087L38.674,26.024c-0.047,0.031-0.098,0.053-0.145,0.082v27.865   l33.97-33.97V6.765C72.499,6.105,72.151,5.524,71.569,5.212z"/><path d="M10,92.5l19.339-19.339h6.102v-6.102l3.088-3.088v9.922c0.047,0.029,0.098,0.051,0.145,0.082L69.761,94.7   c0.55,0.367,1.224,0.399,1.808,0.087c0.582-0.312,0.93-0.893,0.93-1.553V30.001L92.5,10L90,7.5L7.5,90   C7.681,90.067,10,92.5,10,92.5z"/></g><text x="0" y="115" fill="#000000" font-size="5px" font-weight="bold" font-family="'Helvetica Neue', Helvetica, Arial-Unicode, Arial, Sans-serif">Created by Aleks</text><text x="0" y="120" fill="#000000" font-size="5px" font-weight="bold" font-family="'Helvetica Neue', Helvetica, Arial-Unicode, Arial, Sans-serif">from the Noun Project</text></svg>