<svg width="34" height="35" viewBox="0 0 34 35" fill="none" xmlns="http://www.w3.org/2000/svg">
<path d="M7.16248 8.49294H11.366L11.3649 26.85L7.16135 26.85C6.16813 26.85 5.36002 26.0419 5.36002 25.0487C5.36002 20.1305 5.36115 15.2124 5.36115 10.2943C5.36115 9.30105 6.16926 8.49294 7.16248 8.49294Z" fill="black"/>
<path d="M24.7127 0.116251C24.9266 -0.0260826 25.1898 -0.0381382 25.4158 0.0824176C25.6421 0.203751 25.7774 0.429696 25.7774 0.686363V34.3133C25.7774 34.5699 25.6421 34.7959 25.4158 34.9172C25.1887 35.0385 24.9266 35.0261 24.7127 34.8834C23.3735 33.9906 22.0196 33.0431 20.6646 32.0949C17.9325 30.1829 15.1961 28.2679 12.5669 26.7917C12.5669 20 12.5669 15 12.5669 8.20788C16.698 5.65856 20.6731 2.80933 24.7127 0.116251Z" fill="black"/>
</svg>
